REM DIRINDEX 1\2,1\3,1\4,1\5
REM DIRNAME "folder01","folder02","folder03","folder04","folder05"
TITLE ""
FILE "1Q_t_0001-0009.mp3" MP3
  TRACK 01 AUDIO
    TITLE "2:cjc172_0905"
    INDEX 01 00:00:00
  TRACK 02 AUDIO
    TITLE "2:cjc172_0906"
    INDEX 01 00:02:31
  TRACK 03 AUDIO
    TITLE "0:"
    INDEX 01 00:03:32
  TRACK 04 AUDIO
    TITLE "2:cjc172_0907"
    INDEX 01 00:03:42
  TRACK 05 AUDIO
    TITLE "0:"
    INDEX 01 00:06:36
  TRACK 06 AUDIO
    TITLE "2:cjc172_0908"
    INDEX 01 00:08:14
  TRACK 07 AUDIO
    TITLE "0:"
    INDEX 01 00:09:39
  TRACK 08 AUDIO
    TITLE "2:cjc172_0909"
    INDEX 01 00:10:24
  TRACK 09 AUDIO
    TITLE "0:"
    INDEX 01 00:11:30
  TRACK 10 AUDIO
    TITLE "3:cjc172_0910"
    INDEX 01 00:12:06
  TRACK 11 AUDIO
    TITLE "0:"
    INDEX 01 00:13:11
  TRACK 12 AUDIO
    TITLE "4:cjc172_0911"
    INDEX 01 00:13:40
  TRACK 13 AUDIO
    TITLE "0:"
    INDEX 01 00:15:04
  TRACK 14 AUDIO
    TITLE "5:cjc172_0912"
    INDEX 01 00:15:29
  TRACK 15 AUDIO
    TITLE "0:"
    INDEX 01 00:19:29
  TRACK 16 AUDIO
    TITLE "3:cjc172_0913"
    INDEX 01 00:20:07
  TRACK 17 AUDIO
    TITLE "0:"
    INDEX 01 00:21:18
  TRACK 18 AUDIO
    TITLE "4:cjc172_0914"
    INDEX 01 00:21:50
  TRACK 19 AUDIO
    TITLE "0:"
    INDEX 01 00:24:42
  TRACK 20 AUDIO
    TITLE "5:cjc172_0915"
    INDEX 01 00:24:68
  TRACK 21 AUDIO
    TITLE "0:"
    INDEX 01 00:29:16
  TRACK 22 AUDIO
    TITLE "3:cjc172_0916"
    INDEX 01 00:29:71
  TRACK 23 AUDIO
    TITLE "0:"
    INDEX 01 00:31:19
  TRACK 24 AUDIO
    TITLE "4:cjc172_0917"
    INDEX 01 00:31:50
  TRACK 25 AUDIO
    TITLE "0:"
    INDEX 01 00:33:23
  TRACK 26 AUDIO
    TITLE "5:cjc172_0918"
    INDEX 01 00:33:51
  TRACK 27 AUDIO
    TITLE "0:"
    INDEX 01 00:40:33
  TRACK 28 AUDIO
    TITLE "3:cjc172_0919"
    INDEX 01 00:41:09
  TRACK 29 AUDIO
    TITLE "0:"
    INDEX 01 00:42:26
  TRACK 30 AUDIO
    TITLE "4:cjc172_0920"
    INDEX 01 00:42:54
  TRACK 31 AUDIO
    TITLE "0:"
    INDEX 01 00:48:35
  TRACK 32 AUDIO
    TITLE "5:cjc172_0921"
    INDEX 01 00:48:62
  TRACK 33 AUDIO
    TITLE "0:"
    INDEX 01 00:54:22
  TRACK 34 AUDIO
    TITLE "3:cjc172_0922"
    INDEX 01 00:54:73
  TRACK 35 AUDIO
    TITLE "0:"
    INDEX 01 00:56:09
  TRACK 36 AUDIO
    TITLE "4:cjc172_0923"
    INDEX 01 00:56:40
  TRACK 37 AUDIO
    TITLE "0:"
    INDEX 01 01:00:20
  TRACK 38 AUDIO
    TITLE "5:cjc172_0924"
    INDEX 01 01:00:48
  TRACK 39 AUDIO
    TITLE "0:"
    INDEX 01 01:05:04
  TRACK 40 AUDIO
    TITLE "3:cjc172_0925"
    INDEX 01 01:05:57
  TRACK 41 AUDIO
    TITLE "0:"
    INDEX 01 01:06:74
  TRACK 42 AUDIO
    TITLE "4:cjc172_0926"
    INDEX 01 01:07:26
  TRACK 43 AUDIO
    TITLE "0:"
    INDEX 01 01:08:51
  TRACK 44 AUDIO
    TITLE "5:cjc172_0927"
    INDEX 01 01:09:06
  TRACK 45 AUDIO
    TITLE "0:"
    INDEX 01 01:14:67
  TRACK 46 AUDIO
    TITLE "3:cjc172_0928"
    INDEX 01 01:15:51
  TRACK 47 AUDIO
    TITLE "0:"
    INDEX 01 01:17:01
  TRACK 48 AUDIO
    TITLE "4:cjc172_0929"
    INDEX 01 01:17:29
  TRACK 49 AUDIO
    TITLE "0:"
    INDEX 01 01:21:03
  TRACK 50 AUDIO
    TITLE "5:cjc172_0930"
    INDEX 01 01:21:28
  TRACK 51 AUDIO
    TITLE "0:"
    INDEX 01 01:26:04
  TRACK 52 AUDIO
    TITLE "3:cjc172_0931"
    INDEX 01 01:26:59
  TRACK 53 AUDIO
    TITLE "0:"
    INDEX 01 01:28:01
  TRACK 54 AUDIO
    TITLE "4:cjc172_0932"
    INDEX 01 01:28:28
  TRACK 55 AUDIO
    TITLE "0:"
    INDEX 01 01:30:06
  TRACK 56 AUDIO
    TITLE "5:cjc172_0933"
    INDEX 01 01:30:35
  TRACK 57 AUDIO
    TITLE "0:"
    INDEX 01 01:35:01
  TRACK 58 AUDIO
    TITLE "3:cjc172_0934"
    INDEX 01 01:35:56
  TRACK 59 AUDIO
    TITLE "0:"
    INDEX 01 01:36:49
  TRACK 60 AUDIO
    TITLE "4:cjc172_0935"
    INDEX 01 01:37:06
  TRACK 61 AUDIO
    TITLE "0:"
    INDEX 01 01:38:44
  TRACK 62 AUDIO
    TITLE "5:cjc172_0936"
    INDEX 01 01:38:72
  TRACK 63 AUDIO
    TITLE "0:"
    INDEX 01 01:43:61
